<svg xmlns="http://www.w3.org/2000/svg" data-name="Layer 1" viewBox="0 0 32 32"><circle cx="4.823" cy="27.133" r="1" fill="#fff"/><path fill="#fef3ca" d="M29.519,31.429h-4.43v-8.56h4.43a2.006,2.006,0,0,1,2,2v4.56A2,2,0,0,1,29.519,31.429Z"/><path fill="#fdd331" d="M12.249,31.429H2.689a2,2,0,0,1-2-2v-4.56a2.006,2.006,0,0,1,2-2h9.56Z"/><rect width="6.416" height="8.56" x="18.673" y="22.869" fill="#fbea9a"/><rect width="6.42" height="8.56" x="12.249" y="22.869" fill="#fddd56"/><path fill="#cbe6f6" d="M29.248,17.925,25.387,20.1l-4.2-7.461,3.861-2.171a2.006,2.006,0,0,1,2.724.763L30.011,15.2A2,2,0,0,1,29.248,17.925Z"/><path fill="#54bbe8" d="M14.2,26.39,5.863,31.076a2,2,0,0,1-2.724-.763L.9,26.339a2.006,2.006,0,0,1,.763-2.724L10,18.929Z"/><rect width="6.416" height="8.56" x="17.285" y="13.658" fill="#b8dff6" transform="rotate(-29.352 20.493 17.938)"/><rect width="6.42" height="8.56" x="11.685" y="16.806" fill="#82c8ec" transform="rotate(-29.352 14.895 21.087)"/><path fill="#e5ecc0" d="M22.374,7.133l-2.233,3.826L12.748,6.644l2.233-3.826A2.006,2.006,0,0,1,17.716,2.1l3.938,2.3A2,2,0,0,1,22.374,7.133Z"/><path fill="#aece45" d="M13.668,22.049,8.849,30.305a2,2,0,0,1-2.735.719l-3.938-2.3a2.006,2.006,0,0,1-.719-2.735l4.819-8.257Z"/><rect width="6.416" height="8.56" x="11.619" y="7.292" fill="#d3e39a" transform="rotate(-59.73 14.828 11.572)"/><rect width="6.42" height="8.56" x="8.38" y="12.839" fill="#b9d34c" transform="rotate(-59.73 11.59 17.119)"/><path fill="#f3a5b7" d="M9.041,2.571V7H.481V2.571a2.006,2.006,0,0,1,2-2h4.56A2,2,0,0,1,9.041,2.571Z"/><path fill="#e23342" d="M9.041,19.841V29.4a2,2,0,0,1-2,2H2.481a2.006,2.006,0,0,1-2-2v-9.56Z"/><rect width="8.56" height="6.416" x=".481" y="7.001" fill="#f1758f"/><rect width="8.56" height="6.42" x=".481" y="13.421" fill="#ed4569"/><circle cx="4.823" cy="27.133" r="1.5" fill="#fff"/></svg>